# xmcd
#
# Track frame offsets: 
#        150
#        13350
#        25410
#        38847
#        52275
#        64085
#        77437
#        90630
#        104075
#        117457
#        130005
#        143462
#        156182
#        169392
#        182620
#        196145
#        210037
#        222637
#        237895
#        253472
#
# Disc length: 3552 seconds
#
# Revision: 1
# Processed by: cddbd v1.5.2PL0 Copyright (c) Steve Scherf et al.
# Submitted via: ExactAudioCopy v1.1
#
DISCID=230dde14
DTITLE=Lucille Bogan - Shave 'em Dry: The Best of Lucille Bogan
DYEAR=2004
DGENRE=Blues
TTITLE0=Drinking Blues (mono)
TTITLE1=Barbecue Bess (mono)
TTITLE2=B.D. Woman's Blues (mono)
TTITLE3=Baking Powder Blues (mono)
TTITLE4=Tired As I Can Be (mono)
TTITLE5=Groceries On The Shelf (mono)
TTITLE6=Walkin' Blues (mono)
TTITLE7=Skin Game Blues (mono)
TTITLE8=Stew Meat Blues (mono)
TTITLE9=Hungry Man's Scuffle (mono)
TTITLE10=Watcha Gonna Do (mono)
TTITLE11=Jump Steady Daddy (mono)
TTITLE12=Boogan Ways Blues (mono)
TTITLE13=Reckless Woman (mono)
TTITLE14=Pig Iron Sally (mono)
TTITLE15=Man Stealer Blues (mono)
TTITLE16=Shave 'Em Dry (mono)
TTITLE17=Shave 'Em Dry (alt - 1933 version) (mono)
TTITLE18=Walter Roland - I'm Gonna Shave You Dry (mono)
TTITLE19=Till The Cows Come Home (mono)
EXTD=
EXTT0=
EXTT1=
EXTT2=
EXTT3=
EXTT4=
EXTT5=
EXTT6=
EXTT7=
EXTT8=
EXTT9=
EXTT10=
EXTT11=
EXTT12=
EXTT13=
EXTT14=
EXTT15=
EXTT16=
EXTT17=Previously Unreleased
EXTT18=Previously Unreleased
EXTT19=Previously Unreleased
PLAYORDER=
